<svg width="55" height="16" viewBox="0 0 55 16" fill="none" xmlns="http://www.w3.org/2000/svg">
<path fill-rule="evenodd" clip-rule="evenodd" d="M54.6797 11.6904C54.6797 11.2367 54.5994 10.8405 54.4453 10.4961L54.375 10.3516C54.1821 9.98847 53.8729 9.6966 53.4287 9.48047C52.9912 9.26761 52.3876 9.15039 51.5996 9.15039C51.1855 9.1504 50.7855 9.17606 50.3994 9.22754L50.3896 9.22949C49.9976 9.26869 49.6334 9.32006 49.2969 9.38477L48.8496 9.4707L48.9463 9.02637L49.8867 4.73047H48.7227L47.5137 10.4521C47.4614 10.7402 47.4089 11.0552 47.3564 11.3965C47.3184 11.7164 47.2998 12.0006 47.2998 12.25C47.2998 12.9162 47.4313 13.4449 47.6748 13.8525L47.7715 13.9971C48.0096 14.3221 48.3347 14.5739 48.7549 14.7529C49.2576 14.9481 49.8638 15.0508 50.5801 15.0508C51.5351 15.0507 52.2965 14.8883 52.8809 14.584C53.4924 14.2591 53.9336 13.8489 54.2207 13.3584L54.2217 13.3574L54.3291 13.1621C54.5629 12.704 54.6797 12.2149 54.6797 11.6904ZM53.54 11.8301C53.54 12.0656 53.5106 12.2946 53.4512 12.5156L53.3809 12.7344C53.2704 13.034 53.0891 13.2922 52.8438 13.5088L52.8447 13.5098C52.6098 13.7291 52.3128 13.9008 51.9648 14.0312L51.958 14.0342C51.6108 14.1549 51.2023 14.2099 50.7402 14.21C49.9905 14.21 49.3759 14.0554 48.999 13.6611L48.9268 13.5791C48.5978 13.1718 48.4395 12.6757 48.4395 12.1104C48.4395 11.9102 48.454 11.6792 48.4814 11.4189L48.4824 11.4062C48.5236 11.1316 48.5852 10.8048 48.666 10.4277L48.707 10.2363L48.8984 10.1963C49.2333 10.1265 49.5937 10.0783 49.9785 10.0508C50.3602 10.0103 50.7607 9.99024 51.1797 9.99023C51.7046 9.99023 52.1487 10.0515 52.4932 10.1924C52.8473 10.3316 53.1244 10.5502 53.2979 10.8584C53.4635 11.1401 53.54 11.4684 53.54 11.8301Z" fill="#181A20"/>
<path d="M37.1201 14.9902C37.6683 14.9902 38.1161 14.8846 38.4756 14.6875L38.6123 14.6074C38.9266 14.4098 39.2079 14.1401 39.4561 13.7949C39.6742 13.4814 39.8842 13.1151 40.085 12.6943L40.2832 12.2529C40.5471 11.6195 40.8255 10.8923 41.1172 10.0703C41.5045 8.9353 41.8408 8.04651 42.126 7.4082L42.2363 7.17285C42.4987 6.64162 42.7955 6.23188 43.1377 5.97168C43.5486 5.65603 44.0647 5.51074 44.6602 5.51074C44.8157 5.51076 44.9654 5.51784 45.1094 5.53223L45.3164 5.55957C45.3821 5.57114 45.4441 5.58504 45.502 5.60156L45.7725 5.67969L45.7129 5.9541L43.7715 14.8506H44.9375L47.0664 4.88281C46.8084 4.81773 46.5273 4.7666 46.2227 4.72852L46.2129 4.72656C45.8024 4.66246 45.3779 4.63086 44.9395 4.63086C44.2849 4.63088 43.7398 4.70953 43.2969 4.85938L43.1133 4.92773C42.6401 5.12191 42.2409 5.41854 41.9121 5.82031L41.9111 5.81934C41.6676 6.11916 41.4389 6.48404 41.2246 6.91504L41.0156 7.36816C40.7393 8.01288 40.4485 8.77953 40.1436 9.66797C39.8888 10.4187 39.6463 11.0656 39.416 11.6074L39.415 11.6064C39.2526 12.0121 39.0894 12.3671 38.9219 12.668L38.752 12.9521C38.5222 13.3111 38.2604 13.5945 37.96 13.7842L37.9561 13.7861C37.6628 13.9653 37.3273 14.0507 36.96 14.0508C36.8314 14.0508 36.7109 14.0435 36.5996 14.0312V14.916L36.6934 14.9355L36.7061 14.9375L36.7188 14.9414C36.8363 14.9734 36.9699 14.9902 37.1201 14.9902Z" fill="#181A20"/>
<path fill-rule="evenodd" clip-rule="evenodd" d="M29.4805 11.25V10.875L29.4814 10.8604C29.4949 10.7262 29.508 10.5986 29.5215 10.4775L29.5518 10.21H30.1602C31.2481 10.21 32.1677 10.1181 32.9238 9.93945C33.6866 9.74552 34.3006 9.48456 34.7705 9.16309L34.9424 9.03906C35.3262 8.74711 35.6065 8.42423 35.793 8.07324C36.0113 7.64864 36.1201 7.20226 36.1201 6.73047C36.1201 6.01683 35.8881 5.49299 35.4463 5.11914L35.4434 5.11719C35.0132 4.74367 34.3368 4.53032 33.3604 4.53027C32.5864 4.53027 31.8949 4.72323 31.2783 5.10547L31.2773 5.10449C30.663 5.49368 30.1332 6.01695 29.6885 6.67773L29.6875 6.67969C29.2401 7.33163 28.8924 8.06223 28.6475 8.87305L28.6484 8.87402C28.4163 9.67375 28.2998 10.4858 28.2998 11.3105C28.2998 12.1 28.4399 12.7726 28.709 13.3369C28.9897 13.8847 29.3888 14.3071 29.9102 14.6104C30.4423 14.899 31.0949 15.0508 31.8799 15.0508C32.5399 15.0508 33.0887 14.9792 33.5322 14.8438L33.5342 14.8428L33.8955 14.7285C34.2009 14.626 34.5086 14.5061 34.8203 14.3721V13.5361C34.4376 13.7042 34.0753 13.8451 33.7324 13.9561C33.2475 14.1129 32.7362 14.1904 32.2002 14.1904C31.3294 14.1904 30.6264 13.9387 30.1523 13.3857L30.1494 13.3828C29.7496 12.9031 29.5372 12.2903 29.4902 11.5674L29.4805 11.25ZM34.2686 8.42383C34.7548 8.03163 35 7.50433 35 6.87012C34.9999 6.45126 34.8529 6.09214 34.5518 5.81836C34.549 5.81559 34.5458 5.81329 34.543 5.81055L34.5381 5.80664C34.2314 5.50915 33.7833 5.39062 33.2598 5.39062C32.8286 5.39068 32.4108 5.50939 32.0088 5.73535L31.8369 5.83789C31.4384 6.09502 31.0818 6.44894 30.7637 6.89062L30.6299 7.08594C30.2761 7.62377 29.9975 8.26661 29.791 9.00977L29.6855 9.39062H30.2197C31.0362 9.39062 31.7964 9.32215 32.498 9.18457L32.5029 9.18359L32.7637 9.12207C33.359 8.96718 33.8624 8.73835 34.2637 8.42773L34.2686 8.42383Z" fill="#181A20"/>
<path d="M27.5205 6.87012C27.5205 6.16941 27.3578 5.64856 27.0625 5.27441L26.9287 5.12207C26.5467 4.74005 25.9917 4.53032 25.2207 4.53027C24.7197 4.53027 24.2676 4.63986 23.8604 4.85547L23.8545 4.8584C23.429 5.07115 23.0404 5.34714 22.6885 5.68652C22.3434 6.03207 22.0441 6.39534 21.79 6.77637L21.7012 6.91016H21.1904L21.1621 6.64258C21.087 5.94196 20.8654 5.43149 20.5244 5.0791L20.5176 5.07227C20.2025 4.72497 19.7335 4.5303 19.0605 4.53027C18.5566 4.53027 18.111 4.63436 17.7178 4.83691C17.32 5.04862 16.9661 5.30826 16.6562 5.61719L16.6572 5.61816C16.3458 5.94256 16.0746 6.26536 15.8438 6.58594L15.7539 6.70996H15.165L15.3848 4.73047H14.5234L12.3711 14.8506H13.5176L14.4473 10.4678L14.5205 10.1377C14.6992 9.38122 14.9216 8.72134 15.1895 8.16113C15.4539 7.60811 15.7444 7.14003 16.0625 6.7627L16.2002 6.60645C16.5646 6.20069 16.9476 5.89425 17.3506 5.7002L17.3545 5.69824L17.6533 5.57422C17.9501 5.46703 18.2399 5.41016 18.5205 5.41016C19.0331 5.41017 19.4708 5.54999 19.75 5.89844L19.7529 5.90039L19.7559 5.9043C20.0128 6.21593 20.1201 6.63128 20.1201 7.11035C20.1201 7.28618 20.1058 7.48623 20.0781 7.70801V7.70996C20.05 7.92118 20.0012 8.18335 19.9336 8.49414L18.5898 14.8506H19.7363L20.707 10.248L20.7764 9.94531C20.9437 9.25367 21.1548 8.64416 21.4111 8.11914C21.7005 7.51332 22.0288 7.00667 22.4004 6.60645L22.5381 6.46289C22.8616 6.13936 23.1984 5.88895 23.5498 5.71973C23.9387 5.51927 24.3235 5.4102 24.7002 5.41016C25.2091 5.41016 25.6454 5.54098 25.9375 5.86426C26.2274 6.17125 26.3603 6.57087 26.3604 7.03027C26.3604 7.24356 26.3464 7.46278 26.3184 7.6875C26.2902 7.91275 26.2416 8.18231 26.1738 8.49414L24.8115 14.8506H25.9766L27.3066 8.56836L27.3076 8.56641L27.3955 8.13086C27.4216 7.99062 27.4444 7.85533 27.4639 7.72559C27.5014 7.46199 27.5205 7.17681 27.5205 6.87012Z" fill="#181A20"/>
<path fill-rule="evenodd" clip-rule="evenodd" d="M12.0596 6.27051C12.0596 4.5758 11.6207 3.28169 10.7773 2.35156L10.7754 2.35059C9.95097 1.42775 8.78064 0.950227 7.21973 0.950195C6.50386 0.950195 5.83705 1.05859 5.21777 1.27344L5.21484 1.27539C4.60729 1.47791 4.04281 1.77398 3.52246 2.16699L3.52344 2.16797C3.07647 2.51439 2.67266 2.91463 2.3125 3.37012L2.16113 3.56836C1.76223 4.10881 1.41961 4.70882 1.13477 5.36914C0.86397 6.02774 0.657454 6.73336 0.514648 7.48633L0.513672 7.4873C0.370875 8.22731 0.299805 9.00173 0.299805 9.81055C0.299823 10.906 0.491953 11.8451 0.867188 12.6357C1.2547 13.4108 1.8151 14.0073 2.5498 14.4307C3.29501 14.8391 4.20776 15.0508 5.2998 15.0508C6.04522 15.0508 6.71912 14.9477 7.32422 14.7461C7.94756 14.5295 8.50475 14.2312 8.99707 13.8525L9.18066 13.7061C9.6029 13.3563 9.98162 12.952 10.3174 12.4932C10.702 11.9543 11.0236 11.363 11.2812 10.7188C11.5398 10.059 11.7343 9.35874 11.8643 8.61816C11.9944 7.86297 12.0596 7.0805 12.0596 6.27051ZM10.5957 8.23926C10.7051 7.58269 10.7598 6.91301 10.7598 6.23047C10.7598 4.91917 10.4476 3.8593 9.78516 3.09375C9.12103 2.31329 8.2142 1.93067 7.09961 1.93066C6.60156 1.93066 6.12732 2.00689 5.67871 2.16113L5.48828 2.23145C5.05235 2.39416 4.64957 2.6223 4.28027 2.91406L4.12402 3.04297C3.7277 3.38274 3.3702 3.79673 3.05078 4.28223C2.81026 4.63779 2.59823 5.02347 2.41406 5.43848L2.23926 5.86328L2.2373 5.86914C2.03084 6.44723 1.873 7.06485 1.76367 7.7207C1.65411 8.37807 1.59961 9.06177 1.59961 9.77051C1.59962 10.6429 1.74505 11.4087 2.04785 12.0576L2.04883 12.0596L2.16797 12.291C2.46032 12.8154 2.85115 13.2353 3.33984 13.5439L3.34277 13.5459C3.91784 13.8997 4.59415 14.0703 5.35938 14.0703C5.92843 14.0703 6.46146 13.9704 6.9541 13.7676L7.13379 13.6895C7.54894 13.4975 7.93101 13.2455 8.2793 12.9346L8.27832 12.9336C8.68631 12.5812 9.04452 12.1679 9.35156 11.6934L9.35352 11.6904C9.65934 11.2039 9.9153 10.6698 10.1221 10.0908L10.123 10.0889C10.3287 9.49927 10.4864 8.88331 10.5957 8.24121V8.23926Z" fill="#181A20"/>
</svg>
