<svg width="151" height="22" viewBox="0 0 151 22" fill="none" xmlns="http://www.w3.org/2000/svg">
<path d="M1.8 17V2.72H10.82V5.22H4.82V8.2H6.02C7.36667 8.2 8.46667 8.38667 9.32 8.76C10.1867 9.13333 10.8267 9.64667 11.24 10.3C11.6533 10.9533 11.86 11.7 11.86 12.54C11.86 13.4733 11.6533 14.2733 11.24 14.94C10.8267 15.6067 10.1867 16.12 9.32 16.48C8.45333 16.8267 7.33333 17 5.96 17H1.8ZM5.84 14.52C6.76 14.52 7.48 14.3733 8 14.08C8.53333 13.7867 8.8 13.2733 8.8 12.54C8.8 12.0333 8.66667 11.6467 8.4 11.38C8.14667 11.1133 7.78 10.9333 7.3 10.84C6.83333 10.7333 6.26667 10.68 5.6 10.68H4.82V14.52H5.84ZM19.3939 5.88C20.6206 5.88 21.6139 6.36 22.3739 7.32C23.1339 8.26667 23.5139 9.66667 23.5139 11.52C23.5139 12.76 23.3339 13.8067 22.9739 14.66C22.6139 15.5 22.1206 16.1333 21.4939 16.56C20.8672 16.9867 20.1406 17.2 19.3139 17.2C18.7939 17.2 18.3406 17.1333 17.9539 17C17.5806 16.8667 17.2606 16.6933 16.9939 16.48C16.7272 16.2667 16.4939 16.04 16.2939 15.8H16.1339C16.1872 16.0533 16.2272 16.32 16.2539 16.6C16.2806 16.8667 16.2939 17.1333 16.2939 17.4V21.8H13.3139V6.08H15.7339L16.1539 7.5H16.2939C16.4939 7.20667 16.7339 6.94 17.0139 6.7C17.2939 6.44667 17.6272 6.24667 18.0139 6.1C18.4139 5.95333 18.8739 5.88 19.3939 5.88ZM18.4339 8.26C17.9139 8.26 17.5006 8.36667 17.1939 8.58C16.8872 8.79333 16.6606 9.12 16.5139 9.56C16.3806 9.98667 16.3072 10.5267 16.2939 11.18V11.5C16.2939 12.2067 16.3606 12.8067 16.4939 13.3C16.6272 13.78 16.8539 14.1467 17.1739 14.4C17.4939 14.6533 17.9272 14.78 18.4739 14.78C18.9272 14.78 19.3006 14.6533 19.5939 14.4C19.8872 14.1467 20.1072 13.7733 20.2539 13.28C20.4006 12.7867 20.4739 12.1867 20.4739 11.48C20.4739 10.4133 20.3072 9.61333 19.9739 9.08C19.6539 8.53333 19.1406 8.26 18.4339 8.26ZM27.8502 10.4C27.8502 10.6267 27.8368 10.9067 27.8102 11.24C27.7968 11.5733 27.7768 11.9133 27.7502 12.26C27.7368 12.6067 27.7168 12.9133 27.6902 13.18C27.6635 13.4467 27.6435 13.6333 27.6302 13.74L32.6702 6.08H36.2502V17H33.3702V12.64C33.3702 12.28 33.3835 11.8867 33.4102 11.46C33.4368 11.02 33.4635 10.6133 33.4902 10.24C33.5302 9.85333 33.5568 9.56 33.5702 9.36L28.5502 17H24.9702V6.08H27.8502V10.4ZM42.8047 17.2C41.7247 17.2 40.8047 17.0067 40.0447 16.62C39.2847 16.22 38.7047 15.6067 38.3047 14.78C37.9047 13.9533 37.7047 12.8933 37.7047 11.6C37.7047 10.2667 37.9314 9.18 38.3847 8.34C38.838 7.5 39.4647 6.88 40.2647 6.48C41.078 6.08 42.0114 5.88 43.0647 5.88C43.8114 5.88 44.458 5.95333 45.0047 6.1C45.5647 6.24667 46.0514 6.42 46.4647 6.62L45.5847 8.92C45.118 8.73333 44.678 8.58 44.2647 8.46C43.8647 8.34 43.4647 8.28 43.0647 8.28C42.5447 8.28 42.1114 8.40667 41.7647 8.66C41.418 8.9 41.158 9.26667 40.9847 9.76C40.8247 10.24 40.7447 10.8467 40.7447 11.58C40.7447 12.3 40.8314 12.9 41.0047 13.38C41.1914 13.8467 41.458 14.2 41.8047 14.44C42.1514 14.6667 42.5714 14.78 43.0647 14.78C43.6914 14.78 44.2447 14.7 44.7247 14.54C45.2047 14.3667 45.6714 14.1333 46.1247 13.84V16.38C45.6714 16.6733 45.1914 16.88 44.6847 17C44.1914 17.1333 43.5647 17.2 42.8047 17.2ZM56.6781 8.32H53.0981V17H50.1181V8.32H46.5381V6.08H56.6781V8.32ZM67.4175 11.52C67.4175 12.4267 67.2908 13.2333 67.0375 13.94C66.7975 14.6467 66.4442 15.2467 65.9775 15.74C65.5242 16.22 64.9708 16.5867 64.3175 16.84C63.6642 17.08 62.9242 17.2 62.0975 17.2C61.3375 17.2 60.6308 17.08 59.9775 16.84C59.3375 16.5867 58.7842 16.22 58.3175 15.74C57.8508 15.2467 57.4842 14.6467 57.2175 13.94C56.9642 13.2333 56.8375 12.4267 56.8375 11.52C56.8375 10.3067 57.0508 9.28667 57.4775 8.46C57.9042 7.62 58.5175 6.98 59.3175 6.54C60.1175 6.1 61.0642 5.88 62.1575 5.88C63.1842 5.88 64.0908 6.1 64.8775 6.54C65.6642 6.98 66.2842 7.62 66.7375 8.46C67.1908 9.28667 67.4175 10.3067 67.4175 11.52ZM59.8775 11.52C59.8775 12.24 59.9508 12.8467 60.0975 13.34C60.2575 13.82 60.5042 14.1867 60.8375 14.44C61.1708 14.68 61.6042 14.8 62.1375 14.8C62.6708 14.8 63.0975 14.68 63.4175 14.44C63.7508 14.1867 63.9908 13.82 64.1375 13.34C64.2975 12.8467 64.3775 12.24 64.3775 11.52C64.3775 10.8 64.2975 10.2 64.1375 9.72C63.9908 9.24 63.7508 8.88 63.4175 8.64C63.0842 8.4 62.6508 8.28 62.1175 8.28C61.3308 8.28 60.7575 8.55333 60.3975 9.1C60.0508 9.63333 59.8775 10.44 59.8775 11.52ZM78.6603 17H75.6803V8.32H72.9403C72.807 9.92 72.6403 11.2867 72.4403 12.42C72.2536 13.54 72.0136 14.4533 71.7203 15.16C71.4403 15.8667 71.0803 16.3867 70.6403 16.72C70.2003 17.04 69.6603 17.2 69.0203 17.2C68.6736 17.2 68.3603 17.1733 68.0803 17.12C67.8003 17.0667 67.547 16.9867 67.3203 16.88V14.5C67.467 14.5533 67.6203 14.6 67.7803 14.64C67.9403 14.68 68.107 14.7 68.2803 14.7C68.467 14.7 68.6403 14.6267 68.8003 14.48C68.9736 14.3333 69.1336 14.0733 69.2803 13.7C69.4403 13.3267 69.587 12.8133 69.7203 12.16C69.8536 11.5067 69.9736 10.6867 70.0803 9.7C70.2003 8.7 70.307 7.49333 70.4003 6.08H78.6603V17ZM85.8509 10.3C86.9709 10.3 87.8976 10.42 88.6309 10.66C89.3643 10.8867 89.9043 11.24 90.2509 11.72C90.6109 12.2 90.7909 12.8 90.7909 13.52C90.7909 14.2267 90.6243 14.84 90.2909 15.36C89.9709 15.88 89.4576 16.2867 88.7509 16.58C88.0443 16.86 87.1176 17 85.9709 17H80.7709V6.08H83.7509V10.3H85.8509ZM87.8109 13.56C87.8109 13.1333 87.6376 12.8267 87.2909 12.64C86.9576 12.4533 86.4576 12.36 85.7909 12.36H83.7509V14.94H85.8309C86.4176 14.94 86.8909 14.8333 87.2509 14.62C87.6243 14.4067 87.8109 14.0533 87.8109 13.56Z" fill="#181A20"/>
<path fill-rule="evenodd" clip-rule="evenodd" d="M150.68 13.6904C150.68 13.2367 150.599 12.8405 150.445 12.4961L150.375 12.3516C150.182 11.9885 149.873 11.6966 149.429 11.4805C148.991 11.2676 148.388 11.1504 147.6 11.1504C147.186 11.1504 146.785 11.1761 146.399 11.2275L146.39 11.2295C145.998 11.2687 145.633 11.3201 145.297 11.3848L144.85 11.4707L144.946 11.0264L145.887 6.73047H144.723L143.514 12.4521C143.461 12.7402 143.409 13.0552 143.356 13.3965C143.318 13.7164 143.3 14.0006 143.3 14.25C143.3 14.9162 143.431 15.4449 143.675 15.8525L143.771 15.9971C144.01 16.3221 144.335 16.5739 144.755 16.7529C145.258 16.9481 145.864 17.0508 146.58 17.0508C147.535 17.0507 148.297 16.8883 148.881 16.584C149.492 16.2591 149.934 15.8489 150.221 15.3584L150.222 15.3574L150.329 15.1621C150.563 14.704 150.68 14.2149 150.68 13.6904ZM149.54 13.8301C149.54 14.0656 149.511 14.2946 149.451 14.5156L149.381 14.7344C149.27 15.034 149.089 15.2922 148.844 15.5088L148.845 15.5098C148.61 15.7291 148.313 15.9008 147.965 16.0312L147.958 16.0342C147.611 16.1549 147.202 16.2099 146.74 16.21C145.99 16.21 145.376 16.0554 144.999 15.6611L144.927 15.5791C144.598 15.1718 144.439 14.6757 144.439 14.1104C144.439 13.9102 144.454 13.6792 144.481 13.4189L144.482 13.4062C144.524 13.1316 144.585 12.8048 144.666 12.4277L144.707 12.2363L144.898 12.1963C145.233 12.1265 145.594 12.0783 145.979 12.0508C146.36 12.0103 146.761 11.9902 147.18 11.9902C147.705 11.9902 148.149 12.0515 148.493 12.1924C148.847 12.3316 149.124 12.5502 149.298 12.8584C149.463 13.1401 149.54 13.4684 149.54 13.8301Z" fill="#181A20"/>
<path d="M133.12 16.9902C133.668 16.9902 134.116 16.8846 134.476 16.6875L134.612 16.6074C134.927 16.4098 135.208 16.1401 135.456 15.7949C135.674 15.4814 135.884 15.1151 136.085 14.6943L136.283 14.2529C136.547 13.6195 136.826 12.8923 137.117 12.0703C137.504 10.9353 137.841 10.0465 138.126 9.4082L138.236 9.17285C138.499 8.64162 138.795 8.23188 139.138 7.97168C139.549 7.65603 140.065 7.51074 140.66 7.51074C140.816 7.51076 140.965 7.51784 141.109 7.53223L141.316 7.55957C141.382 7.57114 141.444 7.58504 141.502 7.60156L141.772 7.67969L141.713 7.9541L139.771 16.8506H140.938L143.066 6.88281C142.808 6.81773 142.527 6.7666 142.223 6.72852L142.213 6.72656C141.802 6.66246 141.378 6.63086 140.939 6.63086C140.285 6.63088 139.74 6.70953 139.297 6.85938L139.113 6.92773C138.64 7.12191 138.241 7.41854 137.912 7.82031L137.911 7.81934C137.668 8.11916 137.439 8.48404 137.225 8.91504L137.016 9.36816C136.739 10.0129 136.449 10.7795 136.144 11.668C135.889 12.4187 135.646 13.0656 135.416 13.6074L135.415 13.6064C135.253 14.0121 135.089 14.3671 134.922 14.668L134.752 14.9521C134.522 15.3111 134.26 15.5945 133.96 15.7842L133.956 15.7861C133.663 15.9653 133.327 16.0507 132.96 16.0508C132.831 16.0508 132.711 16.0435 132.6 16.0312V16.916L132.693 16.9355L132.706 16.9375L132.719 16.9414C132.836 16.9734 132.97 16.9902 133.12 16.9902Z" fill="#181A20"/>
<path fill-rule="evenodd" clip-rule="evenodd" d="M125.48 13.25V12.875L125.481 12.8604C125.495 12.7262 125.508 12.5986 125.521 12.4775L125.552 12.21H126.16C127.248 12.21 128.168 12.1181 128.924 11.9395C129.687 11.7455 130.301 11.4846 130.771 11.1631L130.942 11.0391C131.326 10.7471 131.606 10.4242 131.793 10.0732C132.011 9.64864 132.12 9.20226 132.12 8.73047C132.12 8.01683 131.888 7.49299 131.446 7.11914L131.443 7.11719C131.013 6.74367 130.337 6.53032 129.36 6.53027C128.586 6.53027 127.895 6.72323 127.278 7.10547L127.277 7.10449C126.663 7.49368 126.133 8.01695 125.688 8.67773L125.688 8.67969C125.24 9.33163 124.892 10.0622 124.647 10.873L124.648 10.874C124.416 11.6738 124.3 12.4858 124.3 13.3105C124.3 14.1 124.44 14.7726 124.709 15.3369C124.99 15.8847 125.389 16.3071 125.91 16.6104C126.442 16.899 127.095 17.0508 127.88 17.0508C128.54 17.0508 129.089 16.9792 129.532 16.8438L129.534 16.8428L129.896 16.7285C130.201 16.626 130.509 16.5061 130.82 16.3721V15.5361C130.438 15.7042 130.075 15.8451 129.732 15.9561C129.247 16.1129 128.736 16.1904 128.2 16.1904C127.329 16.1904 126.626 15.9387 126.152 15.3857L126.149 15.3828C125.75 14.9031 125.537 14.2903 125.49 13.5674L125.48 13.25ZM130.269 10.4238C130.755 10.0316 131 9.50433 131 8.87012C131 8.45126 130.853 8.09214 130.552 7.81836C130.549 7.81559 130.546 7.81329 130.543 7.81055L130.538 7.80664C130.231 7.50915 129.783 7.39062 129.26 7.39062C128.829 7.39068 128.411 7.50939 128.009 7.73535L127.837 7.83789C127.438 8.09502 127.082 8.44894 126.764 8.89062L126.63 9.08594C126.276 9.62377 125.997 10.2666 125.791 11.0098L125.686 11.3906H126.22C127.036 11.3906 127.796 11.3222 128.498 11.1846L128.503 11.1836L128.764 11.1221C129.359 10.9672 129.862 10.7383 130.264 10.4277L130.269 10.4238Z" fill="#181A20"/>
<path d="M123.521 8.87012C123.52 8.16941 123.358 7.64856 123.062 7.27441L122.929 7.12207C122.547 6.74005 121.992 6.53032 121.221 6.53027C120.72 6.53027 120.268 6.63986 119.86 6.85547L119.854 6.8584C119.429 7.07115 119.04 7.34714 118.688 7.68652C118.343 8.03207 118.044 8.39534 117.79 8.77637L117.701 8.91016H117.19L117.162 8.64258C117.087 7.94196 116.865 7.43149 116.524 7.0791L116.518 7.07227C116.203 6.72497 115.733 6.5303 115.061 6.53027C114.557 6.53027 114.111 6.63436 113.718 6.83691C113.32 7.04862 112.966 7.30826 112.656 7.61719L112.657 7.61816C112.346 7.94256 112.075 8.26536 111.844 8.58594L111.754 8.70996H111.165L111.385 6.73047H110.523L108.371 16.8506H109.518L110.447 12.4678L110.521 12.1377C110.699 11.3812 110.922 10.7213 111.189 10.1611C111.454 9.60811 111.744 9.14003 112.062 8.7627L112.2 8.60645C112.565 8.20069 112.948 7.89425 113.351 7.7002L113.354 7.69824L113.653 7.57422C113.95 7.46703 114.24 7.41016 114.521 7.41016C115.033 7.41017 115.471 7.54999 115.75 7.89844L115.753 7.90039L115.756 7.9043C116.013 8.21593 116.12 8.63128 116.12 9.11035C116.12 9.28618 116.106 9.48623 116.078 9.70801V9.70996C116.05 9.92118 116.001 10.1834 115.934 10.4941L114.59 16.8506H115.736L116.707 12.248L116.776 11.9453C116.944 11.2537 117.155 10.6442 117.411 10.1191C117.7 9.51332 118.029 9.00667 118.4 8.60645L118.538 8.46289C118.862 8.13936 119.198 7.88895 119.55 7.71973C119.939 7.51927 120.324 7.4102 120.7 7.41016C121.209 7.41016 121.645 7.54098 121.938 7.86426C122.227 8.17125 122.36 8.57087 122.36 9.03027C122.36 9.24356 122.346 9.46278 122.318 9.6875C122.29 9.91275 122.242 10.1823 122.174 10.4941L120.812 16.8506H121.977L123.307 10.5684L123.308 10.5664L123.396 10.1309C123.422 9.99062 123.444 9.85533 123.464 9.72559C123.501 9.46199 123.521 9.17681 123.521 8.87012Z" fill="#181A20"/>
<path fill-rule="evenodd" clip-rule="evenodd" d="M108.06 8.27051C108.06 6.5758 107.621 5.28169 106.777 4.35156L106.775 4.35059C105.951 3.42775 104.781 2.95023 103.22 2.9502C102.504 2.9502 101.837 3.05859 101.218 3.27344L101.215 3.27539C100.607 3.47791 100.043 3.77398 99.5225 4.16699L99.5234 4.16797C99.0765 4.51439 98.6727 4.91463 98.3125 5.37012L98.1611 5.56836C97.7622 6.10881 97.4196 6.70882 97.1348 7.36914C96.864 8.02774 96.6575 8.73336 96.5146 9.48633L96.5137 9.4873C96.3709 10.2273 96.2998 11.0017 96.2998 11.8105C96.2998 12.906 96.492 13.8451 96.8672 14.6357C97.2547 15.4108 97.8151 16.0073 98.5498 16.4307C99.295 16.8391 100.208 17.0508 101.3 17.0508C102.045 17.0508 102.719 16.9477 103.324 16.7461C103.948 16.5295 104.505 16.2312 104.997 15.8525L105.181 15.7061C105.603 15.3563 105.982 14.952 106.317 14.4932C106.702 13.9543 107.024 13.363 107.281 12.7188C107.54 12.059 107.734 11.3587 107.864 10.6182C107.994 9.86297 108.06 9.0805 108.06 8.27051ZM106.596 10.2393C106.705 9.58269 106.76 8.91301 106.76 8.23047C106.76 6.91917 106.448 5.8593 105.785 5.09375C105.121 4.31329 104.214 3.93067 103.1 3.93066C102.602 3.93066 102.127 4.00689 101.679 4.16113L101.488 4.23145C101.052 4.39416 100.65 4.6223 100.28 4.91406L100.124 5.04297C99.7277 5.38274 99.3702 5.79673 99.0508 6.28223C98.8103 6.63779 98.5982 7.02347 98.4141 7.43848L98.2393 7.86328L98.2373 7.86914C98.0308 8.44723 97.873 9.06485 97.7637 9.7207C97.6541 10.3781 97.5996 11.0618 97.5996 11.7705C97.5996 12.6429 97.745 13.4087 98.0479 14.0576L98.0488 14.0596L98.168 14.291C98.4603 14.8154 98.8511 15.2353 99.3398 15.5439L99.3428 15.5459C99.9178 15.8997 100.594 16.0703 101.359 16.0703C101.928 16.0703 102.461 15.9704 102.954 15.7676L103.134 15.6895C103.549 15.4975 103.931 15.2455 104.279 14.9346L104.278 14.9336C104.686 14.5812 105.045 14.1679 105.352 13.6934L105.354 13.6904C105.659 13.2039 105.915 12.6698 106.122 12.0908L106.123 12.0889C106.329 11.4993 106.486 10.8833 106.596 10.2412V10.2393Z" fill="#181A20"/>
</svg>
