<svg width="1170" height="1176" viewBox="0 0 1170 1176" fill="none" xmlns="http://www.w3.org/2000/svg">
<path opacity="0.0344828" d="M500.455 731.544C379.844 632.238 280.162 531.236 216.497 448.224C184.662 406.715 161.85 369.726 149.922 339.712C143.958 324.704 140.725 311.465 140.433 300.291C140.141 289.12 142.787 280.045 148.545 273.313C154.302 266.58 162.95 262.447 174.211 260.79C185.477 259.132 199.325 259.957 215.423 263.115C247.617 269.429 288.702 285.05 335.889 308.605C430.258 355.713 548.936 434.501 669.546 533.807C790.157 633.114 889.839 734.116 953.504 817.128C985.34 858.637 1008.15 895.626 1020.08 925.641C1026.04 940.648 1029.28 953.887 1029.57 965.062C1029.86 976.232 1027.21 985.306 1021.46 992.039C1015.7 998.771 1007.05 1002.9 995.791 1004.56C984.525 1006.22 970.676 1005.39 954.579 1002.24C922.384 995.923 881.3 980.302 834.112 956.746C739.743 909.639 621.065 830.851 500.455 731.544Z" stroke="#6D6D6D"/>
<path opacity="0.0689655" d="M491.995 719.471C380.664 610.228 290.333 501.085 234.283 412.944C206.256 368.87 186.815 330.072 177.599 299.152C172.991 283.692 170.947 270.226 171.648 259.069C172.35 247.917 175.791 239.102 182.125 232.887C188.459 226.672 197.442 223.295 208.807 222.607C220.177 221.919 233.9 223.925 249.655 228.447C281.166 237.49 320.707 256.565 365.623 284.067C455.448 339.066 566.677 427.703 678.008 536.946C789.339 646.189 879.67 755.332 935.72 843.473C963.747 887.547 983.187 926.346 992.403 957.266C997.011 972.726 999.055 986.191 998.354 997.348C997.653 1008.5 994.212 1017.32 987.878 1023.53C981.544 1029.75 972.561 1033.12 961.195 1033.81C949.825 1034.5 936.102 1032.49 920.346 1027.97C888.836 1018.93 849.295 999.852 804.379 972.35C714.554 917.352 603.326 828.714 491.995 719.471Z" stroke="#6D6D6D"/>
<path opacity="0.103448" d="M484.241 706.703C383.037 588.355 302.743 471.902 254.736 379.303C230.73 333 214.81 292.687 208.375 261.096C205.158 245.301 204.317 231.712 206.007 220.657C207.696 209.607 211.908 201.12 218.77 195.47C225.633 189.82 234.882 187.224 246.265 187.51C257.653 187.797 271.145 190.969 286.439 196.821C317.027 208.525 354.723 230.909 397.025 262.147C481.623 324.619 584.556 422.431 685.759 540.78C786.963 659.128 867.257 775.581 915.265 868.18C939.27 914.482 955.189 954.796 961.624 986.386C964.841 1002.18 965.682 1015.77 963.993 1026.82C962.304 1037.87 958.092 1046.36 951.23 1052.01C944.367 1057.66 935.118 1060.26 923.734 1059.97C912.347 1059.69 898.854 1056.51 883.56 1050.66C852.972 1038.96 815.277 1016.57 772.975 985.336C688.377 922.864 585.445 825.052 484.241 706.703Z" stroke="#6D6D6D"/>
<path opacity="0.137931" d="M477.255 693.303C386.948 566.75 317.303 443.874 277.703 347.522C257.901 299.343 245.623 257.82 242.019 225.8C240.216 209.79 240.586 196.181 243.251 185.313C245.915 174.45 250.865 166.355 258.204 161.313C265.543 156.27 274.988 154.475 286.302 155.734C297.621 156.993 310.78 161.307 325.496 168.445C354.927 182.72 390.491 208.243 429.858 242.98C508.585 312.448 602.438 418.691 692.745 545.245C783.052 671.798 852.696 794.674 892.296 891.025C912.098 939.205 924.376 980.726 927.98 1012.75C929.782 1028.76 929.413 1042.37 926.748 1053.23C924.084 1064.1 919.135 1072.19 911.796 1077.23C904.457 1082.28 895.011 1084.07 883.697 1082.81C872.378 1081.55 859.219 1077.24 844.503 1070.1C815.071 1055.83 779.508 1030.3 740.141 995.568C661.414 926.099 567.561 819.856 477.255 693.303Z" stroke="#6D6D6D"/>
<path opacity="0.172414" d="M471.088 679.34C392.366 545.545 333.901 417.181 303.009 317.809C287.563 268.12 279.019 225.706 278.273 193.5C277.899 177.396 279.476 163.871 283.096 153.273C286.715 142.678 292.365 135.037 300.124 130.641C307.884 126.245 317.453 125.265 328.613 127.486C339.777 129.709 352.503 135.132 366.528 143.501C394.58 160.238 427.741 188.705 463.872 226.676C536.13 302.613 620.188 416.479 698.91 550.273C777.633 684.068 836.099 812.433 866.99 911.804C882.437 961.494 890.981 1003.91 891.727 1036.11C892.1 1052.22 890.524 1065.74 886.904 1076.34C883.285 1086.94 877.634 1094.58 869.875 1098.97C862.115 1103.37 852.547 1104.35 841.387 1102.13C830.223 1099.9 817.497 1094.48 803.471 1086.11C775.42 1069.37 742.259 1040.91 706.127 1002.94C633.87 927 549.811 813.135 471.088 679.34Z" stroke="#6D6D6D"/>
<path opacity="0.206897" d="M465.789 664.884C399.25 524.866 352.409 391.99 330.461 290.355C319.487 239.533 314.743 196.551 316.86 164.403C317.918 148.329 320.691 134.99 325.239 124.742C329.785 114.497 336.092 107.368 344.213 103.652C352.334 99.9359 361.954 99.7778 372.874 102.946C383.798 106.115 395.994 112.605 409.223 122.142C435.68 141.215 466.187 172.409 498.808 213.325C564.045 295.153 637.671 415.773 704.21 555.791C770.75 695.809 817.59 828.685 839.538 930.321C850.512 981.142 855.256 1024.12 853.139 1056.27C852.08 1072.35 849.308 1085.69 844.76 1095.93C840.214 1106.18 833.907 1113.31 825.786 1117.02C817.665 1120.74 808.045 1120.9 797.125 1117.73C786.201 1114.56 774.005 1108.07 760.776 1098.53C734.318 1079.46 703.812 1048.27 671.191 1007.35C605.953 925.523 532.328 804.902 465.789 664.884Z" stroke="#6D6D6D"/>
<path opacity="0.241379" d="M461.398 650.015C407.549 504.839 372.689 368.463 359.852 265.338C353.433 213.771 352.525 170.547 357.489 138.703C359.971 122.78 363.918 109.729 369.359 99.9086C374.798 90.092 381.714 83.5285 390.134 80.521C398.555 77.5137 408.153 78.1792 418.75 82.2689C429.351 86.3602 440.924 93.8686 453.255 104.5C477.918 125.763 505.538 159.448 534.401 202.999C592.122 290.094 654.753 416.552 708.603 561.727C762.452 706.903 797.312 843.279 810.149 946.404C816.567 997.97 817.475 1041.19 812.511 1073.04C810.029 1088.96 806.082 1102.01 800.641 1111.83C795.203 1121.65 788.286 1128.21 779.865 1131.22C771.445 1134.23 761.848 1133.56 751.251 1129.47C740.649 1125.38 729.077 1117.87 716.745 1107.24C692.082 1085.98 664.463 1052.29 635.6 1008.74C577.879 921.648 515.248 795.19 461.398 650.015Z" stroke="#6D6D6D"/>
<path opacity="0.275862" d="M457.947 634.811C417.197 485.582 394.582 346.744 390.955 242.913C389.14 190.994 392.074 147.857 399.848 116.559C407.633 85.2134 420.22 65.9435 437.538 61.39C454.856 56.8366 475.575 67.3499 498.289 90.676C520.97 113.967 545.492 149.885 570.377 195.739C620.142 287.438 671.303 418.772 712.052 568C752.802 717.228 775.418 856.067 779.046 959.897C780.86 1011.82 777.925 1054.95 770.151 1086.25C762.366 1117.6 749.78 1136.87 732.461 1141.42C715.143 1145.97 694.424 1135.46 671.71 1112.13C649.029 1088.84 624.508 1052.92 599.623 1007.07C549.858 915.372 498.696 784.039 457.947 634.811Z" stroke="#6D6D6D"/>
<path opacity="0.310345" d="M455.463 619.35C428.123 467.204 417.926 326.96 423.534 223.215C426.339 171.338 433.093 128.616 443.617 98.1013C454.157 67.5412 468.407 49.421 486.064 46.3659C503.721 43.311 523.428 55.5561 543.984 80.7358C564.509 105.878 585.748 143.757 606.465 191.564C647.896 287.171 687.197 422.379 714.537 574.524C741.877 726.67 752.074 866.914 746.466 970.659C743.661 1022.54 736.906 1065.26 726.382 1095.77C715.843 1126.33 701.593 1144.45 683.936 1147.51C666.278 1150.56 646.572 1138.32 626.016 1113.14C605.491 1088 584.252 1050.12 563.535 1002.31C522.104 906.703 482.803 771.495 455.463 619.35Z" stroke="#6D6D6D"/>
<path opacity="0.344828" d="M453.965 603.719C440.243 449.815 442.541 309.233 457.343 206.362C464.744 154.923 475.268 112.94 488.462 83.4419C501.676 53.9 517.481 37.0667 535.343 35.5331C553.204 33.9997 571.749 47.8841 589.99 74.7259C608.204 101.528 625.998 141.079 642.39 190.476C675.171 289.262 702.313 427.317 716.035 581.221C729.757 735.126 727.459 875.708 712.657 978.579C705.256 1030.02 694.732 1072 681.538 1101.5C668.324 1131.04 652.518 1147.87 634.656 1149.41C616.795 1150.94 598.251 1137.06 580.01 1110.21C561.796 1083.41 544.002 1043.86 527.61 994.465C494.829 895.679 467.687 757.624 453.965 603.719Z" stroke="#6D6D6D"/>
<path opacity="0.37931" d="M453.465 588.002C453.465 433.51 468.242 293.659 492.124 192.445C504.066 141.835 518.279 100.913 534.043 72.6553C549.831 44.3556 567.071 28.9385 585.001 28.9385C602.931 28.9387 620.17 44.3559 635.958 72.6553C651.722 100.913 665.935 141.835 677.877 192.445C701.759 293.659 716.536 433.51 716.536 588.002C716.536 742.494 701.759 882.345 677.877 983.559C665.935 1034.17 651.722 1075.09 635.958 1103.35C620.17 1131.65 602.931 1147.07 585.001 1147.07C567.071 1147.07 549.831 1131.65 534.043 1103.35C518.279 1075.09 504.066 1034.17 492.124 983.559C468.242 882.345 453.465 742.494 453.465 588.002Z" stroke="#6D6D6D"/>
<path opacity="0.413793" d="M453.964 572.282C467.686 418.378 494.828 280.323 527.61 181.537C544.002 132.141 561.795 92.589 580.009 65.7872C598.25 38.9456 616.794 25.0612 634.656 26.5943C652.517 28.1277 668.323 44.961 681.537 74.5032C694.731 104.001 705.255 145.984 712.656 197.423C727.458 300.294 729.757 440.876 716.034 594.781C702.312 748.685 675.17 886.74 642.389 985.527C625.997 1034.92 608.203 1074.47 589.989 1101.28C571.748 1128.12 553.204 1142 535.342 1140.47C517.48 1138.93 501.675 1122.1 488.461 1092.56C475.267 1063.06 464.743 1021.08 457.342 969.641C442.54 866.77 440.242 726.187 453.964 572.282Z" stroke="#6D6D6D"/>
<path opacity="0.448276" d="M455.463 556.652C482.803 404.506 522.104 269.298 563.536 173.692C584.253 125.884 605.491 88.0055 626.017 62.8634C646.573 37.6836 666.279 25.4384 683.936 28.4935C701.593 31.5486 715.843 49.6689 726.383 80.2288C736.907 110.743 743.662 153.466 746.466 205.342C752.074 309.088 741.878 449.332 714.538 601.477C687.198 753.623 647.896 888.831 606.465 984.438C585.748 1032.24 564.51 1070.12 543.984 1095.27C523.428 1120.45 503.722 1132.69 486.065 1129.64C468.407 1126.58 454.158 1108.46 443.618 1077.9C433.094 1047.39 426.339 1004.66 423.535 952.787C417.927 849.041 428.123 708.797 455.463 556.652Z" stroke="#6D6D6D"/>
<path opacity="0.482759" d="M457.947 541.192C498.697 391.964 549.858 260.631 599.624 168.931C624.508 123.078 649.03 87.159 671.71 63.8679C694.425 40.5418 715.144 30.0287 732.462 34.5819C749.78 39.1353 762.366 58.4053 770.152 89.7506C777.925 121.049 780.86 164.186 779.046 216.106C775.418 319.936 752.803 458.774 712.053 608.003C671.303 757.231 620.143 888.564 570.378 980.264C545.493 1026.12 520.97 1062.04 498.29 1085.33C475.575 1108.65 454.857 1119.17 437.538 1114.61C420.22 1110.06 407.634 1090.79 399.849 1059.44C392.075 1028.15 389.141 985.008 390.955 933.089C394.583 829.259 417.197 690.42 457.947 541.192Z" stroke="#6D6D6D"/>
<path opacity="0.517241" d="M461.397 525.987C515.247 380.812 577.878 254.354 635.599 167.259C664.462 123.708 692.081 90.0238 716.744 68.761C729.076 58.1294 740.649 50.6211 751.25 46.5298C761.847 42.4402 771.444 41.7744 779.865 44.7816C788.285 47.789 795.202 54.3527 800.641 64.1695C806.081 73.9901 810.028 87.0412 812.51 102.963C817.474 134.807 816.567 178.032 810.148 229.598C797.311 332.723 762.451 469.099 708.602 614.275C654.752 759.45 592.121 885.909 534.399 973.004C505.537 1016.55 477.917 1050.24 453.254 1071.5C440.923 1082.13 429.35 1089.64 418.749 1093.73C408.152 1097.82 398.554 1098.49 390.133 1095.48C381.713 1092.47 374.797 1085.91 369.358 1076.09C363.917 1066.27 359.971 1053.22 357.488 1037.3C352.524 1005.46 353.432 962.231 359.851 910.665C372.687 807.54 407.548 671.163 461.397 525.987Z" stroke="#6D6D6D"/>
<path opacity="0.551724" d="M465.789 511.117C532.328 371.099 605.953 250.478 671.191 168.651C703.812 127.735 734.318 96.5404 760.776 77.4675C774.005 67.931 786.201 61.4405 797.125 58.2714C808.045 55.1036 817.665 55.2618 825.786 58.9775C833.907 62.6934 840.214 69.823 844.76 80.0674C849.308 90.316 852.08 103.655 853.139 119.729C855.255 151.877 850.512 194.859 839.537 245.681C817.59 347.316 770.749 480.192 704.21 620.21C637.671 760.228 564.045 880.849 498.808 962.676C466.187 1003.59 435.68 1034.79 409.222 1053.86C395.993 1063.4 383.797 1069.89 372.873 1073.06C361.953 1076.22 352.333 1076.07 344.212 1072.35C336.092 1068.63 329.784 1061.5 325.238 1051.26C320.69 1041.01 317.918 1027.67 316.86 1011.6C314.743 979.45 319.486 936.468 330.461 885.646C352.408 784.011 399.25 651.135 465.789 511.117Z" stroke="#6D6D6D"/>
<path opacity="0.586207" d="M471.09 496.662C549.813 362.867 633.872 249.002 706.129 173.066C742.261 135.094 775.422 106.627 803.473 89.8897C817.499 81.5209 830.225 76.0984 841.389 73.8756C852.548 71.6537 862.117 72.6336 869.877 77.0295C877.636 81.4254 883.286 89.0674 886.905 99.6619C890.525 110.26 892.102 123.786 891.729 139.889C890.983 172.095 882.439 214.509 866.992 264.198C836.101 363.57 777.635 491.934 698.912 625.729C620.19 759.524 536.132 873.389 463.874 949.326C427.743 987.297 394.582 1015.76 366.53 1032.5C352.504 1040.87 339.779 1046.29 328.615 1048.52C317.455 1050.74 307.885 1049.76 300.126 1045.36C292.367 1040.97 286.717 1033.32 283.098 1022.73C279.478 1012.13 277.901 998.606 278.275 982.503C279.021 950.296 287.565 907.883 303.011 858.193C333.903 758.822 392.368 630.457 471.09 496.662Z" stroke="#6D6D6D"/>
<path opacity="0.62069" d="M477.253 482.699C567.56 356.146 661.413 249.903 740.14 180.435C779.506 145.698 815.071 120.175 844.502 105.9C859.218 98.762 872.377 94.4481 883.696 93.1886C895.011 91.9295 904.456 93.7254 911.795 98.7678C919.133 103.81 924.083 111.905 926.747 122.768C929.412 133.636 929.781 147.245 927.979 163.255C924.375 195.275 912.096 236.797 892.295 284.977C852.695 381.329 783.05 504.204 692.743 630.758C602.436 757.311 508.584 863.554 429.857 933.022C390.49 967.759 354.926 993.282 325.495 1007.56C310.779 1014.69 297.62 1019.01 286.301 1020.27C274.987 1021.53 265.542 1019.73 258.203 1014.69C250.864 1009.65 245.914 1001.55 243.25 990.688C240.585 979.821 240.216 966.211 242.018 950.201C245.622 918.181 257.9 876.66 277.702 828.48C317.302 732.128 386.946 609.253 477.253 482.699Z" stroke="#6D6D6D"/>
<path opacity="0.655172" d="M484.24 469.299C585.444 350.95 688.377 253.137 772.975 190.666C815.277 159.428 852.972 137.043 883.56 125.34C898.854 119.488 912.347 116.316 923.734 116.029C935.118 115.743 944.367 118.339 951.23 123.989C958.092 129.639 962.304 138.126 963.993 149.176C965.682 160.231 964.841 173.819 961.624 189.615C955.189 221.205 939.27 261.519 915.264 307.822C867.256 400.421 786.963 516.874 685.759 635.222C584.555 753.571 481.623 851.383 397.024 913.855C354.722 945.093 317.027 967.476 286.439 979.18C271.145 985.032 257.653 988.204 246.265 988.491C234.882 988.778 225.633 986.182 218.77 980.531C211.908 974.881 207.696 966.394 206.007 955.344C204.317 944.29 205.158 930.7 208.375 914.905C214.81 883.315 230.73 843.001 254.735 796.699C302.743 704.1 383.036 587.647 484.24 469.299Z" stroke="#6D6D6D"/>
<path opacity="0.689655" d="M491.993 456.53C603.324 347.287 714.553 258.649 804.378 203.651C849.294 176.149 888.834 157.073 920.345 148.03C936.101 143.508 949.824 141.502 961.194 142.191C972.559 142.879 981.542 146.256 987.876 152.471C994.21 158.686 997.652 167.5 998.353 178.653C999.054 189.81 997.01 203.275 992.402 218.735C983.185 249.655 963.745 288.454 935.718 332.528C879.669 420.669 789.337 529.812 678.007 639.055C566.676 748.298 455.447 836.935 365.622 891.934C320.706 919.436 281.165 938.511 249.654 947.554C233.899 952.076 220.176 954.082 208.806 953.394C197.441 952.706 188.458 949.329 182.124 943.114C175.79 936.899 172.348 928.084 171.647 916.932C170.946 905.775 172.99 892.309 177.598 876.849C186.814 845.929 206.255 807.131 234.282 763.057C290.331 674.916 380.663 565.773 491.993 456.53Z" stroke="#6D6D6D"/>
<path opacity="0.724138" d="M500.454 444.457C621.064 345.15 739.743 266.362 834.111 219.255C881.299 195.699 922.383 180.078 954.578 173.764C970.675 170.607 984.525 169.782 995.79 171.44C1007.05 173.098 1015.7 177.23 1021.46 183.963C1027.21 190.695 1029.86 199.77 1029.57 210.94C1029.28 222.114 1026.04 235.354 1020.08 250.361C1008.15 280.375 985.339 317.364 953.504 358.873C889.839 441.885 790.156 542.887 669.546 642.194C548.936 741.5 430.257 820.288 335.889 867.396C288.701 890.951 247.616 906.573 215.422 912.887C199.324 916.044 185.475 916.87 174.21 915.212C162.949 913.554 154.301 909.421 148.543 902.689C142.786 895.956 140.14 886.882 140.432 875.712C140.724 864.538 143.957 851.297 149.921 836.29C161.848 806.276 184.661 769.286 216.496 727.777C280.161 644.765 379.844 543.763 500.454 444.457Z" stroke="#6D6D6D"/>
<path opacity="0.758621" d="M509.558 433.135C638.53 344.521 763.755 276.182 861.949 237.325C911.05 217.894 953.365 205.846 985.998 202.309C1002.31 200.54 1016.18 200.903 1027.26 203.518C1038.33 206.132 1046.58 210.989 1051.72 218.188C1056.85 225.386 1058.68 234.652 1057.4 245.754C1056.12 256.861 1051.72 269.773 1044.44 284.214C1029.9 313.094 1003.89 347.992 968.485 386.621C897.689 463.872 789.414 555.965 660.442 644.579C531.47 733.193 406.245 801.532 308.052 840.39C258.951 859.82 216.635 871.868 184.002 875.405C167.685 877.173 153.815 876.811 142.74 874.196C131.669 871.582 123.421 866.725 118.285 859.527C113.148 852.328 111.317 843.062 112.6 831.959C113.884 820.853 118.281 807.94 125.555 793.5C140.104 764.619 166.115 729.722 201.516 691.093C272.312 613.842 380.586 521.749 509.558 433.135Z" stroke="#6D6D6D"/>
<path opacity="0.793103" d="M519.236 422.619C655.589 345.373 786.407 288.003 887.679 257.691C938.318 242.534 981.543 234.15 1014.37 233.417C1030.78 233.051 1044.56 234.598 1055.36 238.151C1066.16 241.702 1073.95 247.245 1078.42 254.855C1082.9 262.465 1083.9 271.852 1081.64 282.802C1079.37 293.757 1073.84 306.245 1065.31 320.008C1048.26 347.535 1019.24 380.074 980.548 415.528C903.159 486.432 787.117 568.915 650.765 646.161C514.413 723.408 383.593 780.778 282.322 811.09C231.682 826.247 188.458 834.631 155.635 835.364C139.223 835.73 125.438 834.183 114.637 830.631C103.84 827.08 96.0557 821.536 91.5781 813.927C87.1005 806.317 86.0998 796.93 88.3642 785.979C90.6295 775.024 96.1567 762.536 104.686 748.773C121.744 721.247 150.756 688.707 189.453 653.253C266.841 582.35 382.884 499.866 519.236 422.619Z" stroke="#6D6D6D"/>
<path opacity="0.827586" d="M529.415 412.953C672.109 347.661 807.526 301.698 911.105 280.162C962.899 269.393 1006.7 264.737 1039.47 266.815C1055.85 267.853 1069.44 270.574 1079.89 275.037C1090.33 279.498 1097.59 285.685 1101.38 293.649C1105.16 301.612 1105.32 311.048 1102.09 321.763C1098.86 332.483 1092.25 344.45 1082.53 357.432C1063.09 383.395 1031.3 413.329 989.601 445.339C906.209 509.354 783.281 581.6 640.587 646.892C497.892 712.184 362.475 758.147 258.897 779.683C207.103 790.451 163.298 795.108 130.534 793.03C114.152 791.992 100.558 789.271 90.1138 784.808C79.6733 780.348 72.411 774.16 68.6266 766.197C64.8423 758.233 64.68 748.797 67.9084 738.082C71.1381 727.363 77.7519 715.395 87.4713 702.413C106.91 676.45 138.702 646.515 180.401 614.505C263.793 550.49 386.72 478.245 529.415 412.953Z" stroke="#6D6D6D"/>
<path opacity="0.862069" d="M539.992 404.119C687.937 351.263 826.915 317.042 932.006 304.437C984.556 298.134 1028.61 297.239 1061.06 302.108C1077.28 304.543 1090.58 308.414 1100.59 313.752C1110.59 319.089 1117.28 325.873 1120.34 334.13C1123.4 342.386 1122.72 351.801 1118.55 362.201C1114.38 372.604 1106.73 383.962 1095.9 396.065C1074.22 420.27 1039.9 447.377 995.512 475.705C906.753 532.356 777.88 593.828 629.935 646.684C481.99 699.539 343.013 733.761 237.922 746.367C185.372 752.67 141.322 753.565 108.87 748.696C92.6442 746.261 79.3443 742.389 69.3373 737.051C59.3338 731.714 52.6503 724.929 49.5888 716.673C46.5273 708.416 47.2041 699.002 51.3726 688.602C55.5426 678.199 63.1956 666.842 74.0311 654.739C95.7021 630.534 130.032 603.426 174.416 575.099C263.175 518.448 392.047 456.975 539.992 404.119Z" stroke="#6D6D6D"/>
<path opacity="0.896552" d="M550.945 396.279C703.024 356.28 844.513 334.077 950.326 330.51C1003.24 328.726 1047.2 331.603 1079.09 339.229C1095.04 343.042 1107.95 348.037 1117.44 354.211C1126.94 360.383 1132.99 367.713 1135.31 376.199C1137.62 384.686 1136.11 394.006 1131.04 404.009C1125.96 414.016 1117.33 424.676 1105.46 435.806C1081.72 458.065 1045.11 482.133 998.382 506.556C904.928 555.398 771.085 605.611 619.007 645.61C466.929 685.609 325.441 707.811 219.628 711.379C166.718 713.163 122.756 710.286 90.8594 702.659C74.9108 698.846 62.005 693.851 52.51 687.677C43.0183 681.505 36.9626 674.175 34.646 665.688C32.3296 657.202 33.8401 647.882 38.9162 637.879C43.9943 627.872 52.6267 617.212 64.4961 606.083C88.2345 583.823 124.841 559.756 171.572 535.333C265.025 486.491 398.868 436.277 550.945 396.279Z" stroke="#6D6D6D"/>
<path opacity="0.931035" d="M562.155 389.388C717.208 362.552 860.131 352.539 965.859 358.036C1018.73 360.785 1062.27 367.411 1093.37 377.737C1108.91 382.9 1121.33 388.98 1130.24 395.943C1139.15 402.903 1144.53 410.723 1146.08 419.375C1147.64 428.027 1145.3 437.182 1139.36 446.713C1133.41 456.248 1123.87 466.128 1111.05 476.2C1085.43 496.343 1046.82 517.188 998.101 537.52C900.665 578.181 762.871 616.754 607.819 643.59C452.766 670.427 309.841 680.44 204.113 674.942C151.245 672.193 107.706 665.567 76.6072 655.241C61.0579 650.078 48.6447 643.998 39.734 637.036C30.8263 630.075 25.4446 622.255 23.8904 613.603C22.3363 604.951 24.6686 595.796 30.6138 586.265C36.5612 576.731 46.107 566.85 58.9197 556.778C84.5446 536.634 123.15 515.791 171.872 495.459C269.308 454.798 407.102 416.225 562.155 389.388Z" stroke="#6D6D6D"/>
<path opacity="0.965517" d="M573.534 383.467C730.38 369.998 873.651 372.249 978.489 386.771C1030.91 394.032 1073.7 404.357 1103.76 417.304C1118.79 423.778 1130.62 430.897 1138.88 438.596C1147.13 446.291 1151.8 454.542 1152.58 463.294C1153.36 472.045 1150.23 480.966 1143.46 489.951C1136.68 498.941 1126.3 507.967 1112.64 516.905C1085.32 534.779 1045.01 552.241 994.671 568.327C893.995 600.498 753.299 627.136 596.452 640.605C439.606 654.075 296.336 651.823 191.498 637.302C139.074 630.04 96.2879 619.715 66.2246 606.768C51.1925 600.294 39.3657 593.175 31.107 585.477C22.8516 577.781 18.1854 569.531 17.4053 560.78C16.6253 552.028 19.7609 543.107 26.5297 534.121C33.301 525.132 43.6887 516.105 57.3472 507.168C84.6634 489.293 124.973 471.832 175.315 455.745C275.992 423.574 416.687 396.937 573.534 383.467Z" stroke="#6D6D6D"/>
<path d="M585.001 378.523C742.447 378.523 884.973 393.023 988.123 416.458C1039.7 428.177 1081.41 442.123 1110.21 457.593C1124.61 465.328 1135.76 473.431 1143.3 481.807C1150.84 490.179 1154.76 498.798 1154.76 507.583C1154.76 516.368 1150.84 524.987 1143.3 533.359C1135.76 541.735 1124.61 549.838 1110.21 557.573C1081.41 573.043 1039.7 586.989 988.123 598.708C884.973 622.143 742.447 636.643 585.001 636.643C427.555 636.643 285.029 622.143 181.879 598.708C130.3 586.989 88.5924 573.043 59.793 557.573C45.3931 549.838 34.2439 541.735 26.7002 533.359C19.1591 524.987 15.2432 516.368 15.2432 507.583C15.2432 498.798 19.1591 490.179 26.7002 481.807C34.2439 473.431 45.3931 465.328 59.793 457.593C88.5924 442.123 130.3 428.177 181.879 416.458C285.029 393.023 427.555 378.523 585.001 378.523Z" stroke="#6D6D6D"/>
</svg>
